
 <svg width="450" height="390" viewBox="0 0 909 779" version="1.1" xmlns="http://www.w3.org/2000/svg" xmlns:lucid="lucid" xmlns:xlink="http://www.w3.org/1999/xlink">
  <g transform="translate(-345 -284)" lucid:page-tab-id="AyZZlDZ4F5k0">
   <path d="M0 0h1760v1360H0z" fill="#fff"/>
   <path d="m928 306.75c17.67 0 32 17.9 32 40s-14.33 40-32 40h-96c-17.67 0-32-17.9-32-40s14.33-40 32-40z" fill="#ff741d" stroke="#000" stroke-opacity="0"/>
   <use transform="matrix(1 0 0 1 805 311.75) translate(52.587 39.831)" xlink:href="#a"/>
   <path d="M620 530.17c0-4.42 3.55-8.44 7.94-9l144.12-17.93c4.4-.55 7.94 2.6 7.94 7v104c0 4.43-3.58 8-8 8H628c-4.42 0-8-3.57-8-8z" fill="#ff8839" stroke="#000" stroke-opacity="0" stroke-width="2"/>
   <use transform="matrix(1 0 0 1 625 527.25) translate(50.093 48.893)" xlink:href="#b"/>
   <path d="M940 510.25c0-4.42 3.58-8 8-8h144c4.42 0 8 3.58 8 8v104c0 4.42-3.58 8-8 8H948c-4.42 0-8-3.58-8-8z" fill="#ff8839" stroke="#000" stroke-opacity="0" stroke-width="2"/>
   <use transform="matrix(1 0 0 1 945 507.25) translate(7.8225 59.206)" xlink:href="#c"/>
   <g stroke="#333">
   <path d="M880 387.25V438c0 6.63-5.37 12-12 12H713.34c-6.62 0-12 5.37-12 12v33.66" fill="none"/>
   <path d="M880.5 387.26h-1v-.5h1z" fill="#333" stroke-width=".05"/>
   <path d="m701.34 510.42-4.63-14.26h9.29z" fill="#333"/>
   <path d="M880 387.25V438c0 6.63 5.37 12 12 12h116c6.63 0 12 5.37 12 12v23.87" fill="none"/>
   <path d="M880.5 387.26h-1v-.5h1z" fill="#333" stroke-width=".05"/>
   <path d="m1020 500.63-4.64-14.26h9.28z" fill="#333"/>
   <path d="M1020 622.75v38.38H920v22.5" fill="none"/>
   <path d="M1020.5 622.76h-1v-.5h1z" fill="#333" stroke-width=".05"/>
   <path d="m920 698.38-4.64-14.26h9.28z" fill="#333"/>
   </g>
   <path d="M400 643.92c0-4.42 3.55-8.48 7.93-9.07l144.14-19.5c4.38-.6 7.93 2.5 7.93 6.92v114.4c0 4.42-3.58 8-8 8H408c-4.42 0-8-3.58-8-8z" fill="#ff8839" stroke="#000" stroke-opacity="0" stroke-width="2"/>
   <use transform="matrix(1 0 0 1 405 641.01) translate(40.259 21.333)" xlink:href="#d"/>
   <use transform="matrix(1 0 0 1 405 641.01) translate(26.444 54.667)" xlink:href="#e"/>
   <use transform="matrix(1 0 0 1 405 641.01) translate(40.222 88)" xlink:href="#f"/>
   <g stroke="#333">
   <path d="m700 622.75v72.87" fill="none"/>
   <path d="M700.5 622.76h-1v-.5h1z" fill="#333" stroke-width=".05"/>
   <path d="m700 710.38-4.64-14.26h9.28z" fill="#333"/>
   </g>
   <path d="M620 727.92c0-4.42 3.55-8.44 7.94-9L772.06 701c4.4-.56 7.94 2.58 7.94 7v104c0 4.42-3.58 8-8 8H628c-4.42 0-8-3.58-8-8z" fill="#ff8839" stroke="#000" stroke-opacity="0" stroke-width="2"/>
   <use transform="matrix(1 0 0 1 625 725) translate(40.149 48.893)" xlink:href="#g"/>
   <path d="M840 708c0-4.42 3.58-8 8-8h144c4.42 0 8 3.58 8 8v104c0 4.42-3.58 8-8 8H848c-4.42 0-8-3.58-8-8z" fill="#ff8839" stroke="#000" stroke-opacity="0" stroke-width="2"/>
   <use transform="matrix(1 0 0 1 845 705) translate(14.618 59.206)" xlink:href="#h"/>
   <path d="m1040 708c0-4.42 3.58-8 8-8h144c4.42 0 8 3.58 8 8v104c0 4.42-3.58 8-8 8h-144c-4.42 0-8-3.58-8-8z" fill="#ff8839" stroke="#000" stroke-opacity="0" stroke-width="2"/>
   <use transform="matrix(1 0 0 1 1045 705) translate(32.013 59.206)" xlink:href="#i"/>
   <g stroke="#3a414a">
   <path d="m1020 622.75v32.38c0 3.3 2.7 6 6 6h88c3.3 0 6 2.68 6 6v16.5" fill="none"/>
   <path d="M1020.5 622.76h-1v-.5h1z" fill="#3a414a" stroke-width=".05"/>
   <path d="m1120 698.38-4.64-14.26h9.28z" fill="#3a414a"/>
   </g>
   <path d="m968 920c17.67 0 32 17.9 32 40s-14.33 40-32 40h-96c-17.67 0-32-17.9-32-40s14.33-40 32-40z" fill="#ff741d" stroke="#000" stroke-opacity="0"/>
   <use transform="matrix(1 0 0 1 845 925) translate(25.128 26.706)" xlink:href="#j"/>
   <use transform="matrix(1 0 0 1 845 925) translate(20.951 53.639)" xlink:href="#k"/>
   <g stroke="#3a414a">
   <path d="M700 820.5V864c0 3.3 2.7 6 6 6h208c3.3 0 6 2.7 6 6v27.62" fill="none"/>
   <path d="M700.5 820.5h-1v-.5h1z" fill="#3a414a" stroke-width=".05"/>
   <path d="m920 918.38-4.64-14.26h9.28z" fill="#3a414a"/>
   <path d="m920 820.5v83.12" fill="none"/>
   <path d="M920.5 820.5h-1v-.5h1z" fill="#3a414a" stroke-width=".05"/>
   <path d="m920 918.38-4.64-14.26h9.28z" fill="#3a414a"/>
   <path d="M1120 820.5V864c0 3.3-2.7 6-6 6H926c-3.3 0-6 2.7-6 6v27.62" fill="none"/>
   <path d="M1120.5 820.5h-1v-.5h1z" fill="#3a414a" stroke-width=".05"/>
   <path d="m920 918.38-4.64-14.26h9.28z" fill="#3a414a"/>
   <path d="M1020 622.75v14.5c0 3.3-2.7 6-6 6H816c-3.3 0-6 2.7-6 6V754c0 3.3-2.7 6-6 6h-7.62" fill="none"/>
   <path d="M1020.5 622.76h-1v-.5h1z" fill="#3a414a" stroke-width=".05"/>
   <path d="m781.62 760 14.26-4.64v9.28z" fill="#3a414a"/>
   </g>
   <defs>
   <path id="l" d="M33 0v-248h34V0H33" fill="#fff"/>
   <path id="m" d="M117-194c89-4 53 116 60 194h-32v-121c0-31-8-49-39-48C34-167 62-67 57 0H25l-1-190h30c1 10-1 24 2 32 11-22 29-35 61-36" fill="#fff"/>
   <path id="n" d="M59-47c-2 24 18 29 38 22v24C64 9 27 4 27-40v-127H5v-23h24l9-43h21v43h35v23H59v120" fill="#fff"/>
   <path id="o" d="M114-163C36-179 61-72 57 0H25l-1-190h30c1 12-1 29 2 39 6-27 23-49 58-41v29" fill="#fff"/>
   <path id="p" d="M100-194c62-1 85 37 85 99 1 63-27 99-86 99S16-35 15-95c0-66 28-99 85-99zM99-20c44 1 53-31 53-75 0-43-8-75-51-75s-53 32-53 75 10 74 51 75" fill="#fff"/>
   <g id="a">
    <use transform="scale(.062346)" xlink:href="#l"/>
    <use transform="matrix(.062346 0 0 .062346 6.2346 0)" xlink:href="#m"/>
    <use transform="matrix(.062346 0 0 .062346 18.704 0)" xlink:href="#n"/>
    <use transform="matrix(.062346 0 0 .062346 24.938 0)" xlink:href="#o"/>
    <use transform="matrix(.062346 0 0 .062346 32.357 0)" xlink:href="#p"/>
   </g>
   <path id="q" d="M240 0l2-218c-23 76-54 145-80 218h-23L58-218 59 0H30v-248h44l77 211c21-75 51-140 76-211h43V0h-30" fill="#fff"/>
   <path id="r" d="M141-36C126-15 110 5 73 4 37 3 15-17 15-53c-1-64 63-63 125-63 3-35-9-54-41-54-24 1-41 7-42 31l-33-3c5-37 33-52 76-52 45 0 72 20 72 64v82c-1 20 7 32 28 27v20c-31 9-61-2-59-35zM48-53c0 20 12 33 32 33 41-3 63-29 60-74-43 2-92-5-92 41" fill="#fff"/>
   <path id="s" d="M106-169C34-169 62-67 57 0H25v-261h32l-1 103c12-21 28-36 61-36 89 0 53 116 60 194h-32v-121c2-32-8-49-39-48" fill="#fff"/>
   <g id="b">
    <use transform="scale(.062346)" xlink:href="#q"/>
    <use transform="matrix(.062346 0 0 .062346 18.641 0)" xlink:href="#r"/>
    <use transform="matrix(.062346 0 0 .062346 31.11 0)" xlink:href="#n"/>
    <use transform="matrix(.062346 0 0 .062346 37.345 0)" xlink:href="#s"/>
   </g>
   <path id="t" d="M30-248c87 1 191-15 191 75 0 78-77 80-158 76V0H30v-248zm33 125c57 0 124 11 124-50 0-59-68-47-124-48v98" fill="#fff"/>
   <path id="u" d="M177-190C167-65 218 103 67 71c-23-6-38-20-44-43l32-5c15 47 100 32 89-28v-30C133-14 115 1 83 1 29 1 15-40 15-95c0-56 16-97 71-98 29-1 48 16 59 35 1-10 0-23 2-32h30zM94-22c36 0 50-32 50-73 0-42-14-75-50-75-39 0-46 34-46 75s6 73 46 73" fill="#fff"/>
   <path id="v" d="M210-169c-67 3-38 105-44 169h-31v-121c0-29-5-50-35-48C34-165 62-65 56 0H25l-1-190h30c1 10-1 24 2 32 10-44 99-50 107 0 11-21 27-35 58-36 85-2 47 119 55 194h-31v-121c0-29-5-49-35-48" fill="#fff"/>
   <path id="w" d="M24-231v-30h32v30H24zM24 0v-190h32V0H24" fill="#fff"/>
   <g id="c">
    <use transform="scale(.062346)" xlink:href="#t"/>
    <use transform="matrix(.062346 0 0 .062346 14.963 0)" xlink:href="#o"/>
    <use transform="matrix(.062346 0 0 .062346 22.382 0)" xlink:href="#p"/>
    <use transform="matrix(.062346 0 0 .062346 34.851 0)" xlink:href="#u"/>
    <use transform="matrix(.062346 0 0 .062346 47.32 0)" xlink:href="#o"/>
    <use transform="matrix(.062346 0 0 .062346 54.74 0)" xlink:href="#r"/>
    <use transform="matrix(.062346 0 0 .062346 67.209 0)" xlink:href="#v"/>
    <use transform="matrix(.062346 0 0 .062346 85.85 0)" xlink:href="#v"/>
    <use transform="matrix(.062346 0 0 .062346 104.49 0)" xlink:href="#w"/>
    <use transform="matrix(.062346 0 0 .062346 109.42 0)" xlink:href="#m"/>
    <use transform="matrix(.062346 0 0 .062346 121.89 0)" xlink:href="#u"/>
   </g>
   <path id="x" d="M127-220V0H93v-220H8v-28h204v28h-85" fill="#f0f0f0"/>
   <path id="y" d="M100-194c62-1 85 37 85 99 1 63-27 99-86 99S16-35 15-95c0-66 28-99 85-99zM99-20c44 1 53-31 53-75 0-43-8-75-51-75s-53 32-53 75 10 74 51 75" fill="#f0f0f0"/>
   <path id="z" d="M24 0v-261h32V0H24" fill="#f0f0f0"/>
   <path id="A" d="M135-143c-3-34-86-38-87 0 15 53 115 12 119 90S17 21 10-45l28-5c4 36 97 45 98 0-10-56-113-15-118-90-4-57 82-63 122-42 12 7 21 19 24 35" fill="#f0f0f0"/>
   <path id="B" d="M68-38c1 34 0 65-14 84H32c9-13 17-26 17-46H33v-38h35" fill="#f0f0f0"/>
   <g id="d">
    <use transform="scale(.074074)" xlink:href="#x"/>
    <use transform="matrix(.074074 0 0 .074074 13.259 0)" xlink:href="#y"/>
    <use transform="matrix(.074074 0 0 .074074 28.074 0)" xlink:href="#y"/>
    <use transform="matrix(.074074 0 0 .074074 42.889 0)" xlink:href="#z"/>
    <use transform="matrix(.074074 0 0 .074074 48.741 0)" xlink:href="#A"/>
    <use transform="matrix(.074074 0 0 .074074 62.074 0)" xlink:href="#B"/>
   </g>
   <path id="C" d="M100-194c63 0 86 42 84 106H49c0 40 14 67 53 68 26 1 43-12 49-29l28 8c-11 28-37 45-77 45C44 4 14-33 15-96c1-61 26-98 85-98zm52 81c6-60-76-77-97-28-3 7-6 17-6 28h103" fill="#f0f0f0"/>
   <path id="D" d="m96-169c-40 0-48 33-48 73s9 75 48 75c24 0 41-14 43-38l32 2c-6 37-31 61-74 61-59 0-76-41-82-99-10-93 101-131 147-64 4 7 5 14 7 22l-32 3c-4-21-16-35-41-35" fill="#f0f0f0"/>
   <path id="E" d="M84 4C-5 8 30-112 23-190h32v120c0 31 7 50 39 49 72-2 45-101 50-169h31l1 190h-30c-1-10 1-25-2-33-11 22-28 36-60 37" fill="#f0f0f0"/>
   <path id="F" d="M114-163C36-179 61-72 57 0H25l-1-190h30c1 12-1 29 2 39 6-27 23-49 58-41v29" fill="#f0f0f0"/>
   <path id="G" d="M24-231v-30h32v30H24zM24 0v-190h32V0H24" fill="#f0f0f0"/>
   <path id="H" d="M59-47c-2 24 18 29 38 22v24C64 9 27 4 27-40v-127H5v-23h24l9-43h21v43h35v23H59v120" fill="#f0f0f0"/>
   <path id="I" d="M179-190L93 31C79 59 56 82 12 73V49c39 6 53-20 64-50L1-190h34L92-34l54-156h33" fill="#f0f0f0"/>
   <g id="e">
    <use transform="scale(.074074)" xlink:href="#A"/>
    <use transform="matrix(.074074 0 0 .074074 13.333 0)" xlink:href="#C"/>
    <use transform="matrix(.074074 0 0 .074074 28.148 0)" xlink:href="#D"/>
    <use transform="matrix(.074074 0 0 .074074 41.481 0)" xlink:href="#E"/>
    <use transform="matrix(.074074 0 0 .074074 56.296 0)" xlink:href="#F"/>
    <use transform="matrix(.074074 0 0 .074074 65.111 0)" xlink:href="#G"/>
    <use transform="matrix(.074074 0 0 .074074 70.963 0)" xlink:href="#H"/>
    <use transform="matrix(.074074 0 0 .074074 78.37 0)" xlink:href="#I"/>
    <use transform="matrix(.074074 0 0 .074074 89.704 0)" xlink:href="#B"/>
   </g>
   <path id="J" d="M106-169C34-169 62-67 57 0H25v-261h32l-1 103c12-21 28-36 61-36 89 0 53 116 60 194h-32v-121c2-32-8-49-39-48" fill="#f0f0f0"/>
   <g id="f">
    <use transform="scale(.074074)" xlink:href="#C"/>
    <use transform="matrix(.074074 0 0 .074074 14.815 0)" xlink:href="#H"/>
    <use transform="matrix(.074074 0 0 .074074 22.222 0)" xlink:href="#J"/>
    <use transform="matrix(.074074 0 0 .074074 37.037 0)" xlink:href="#G"/>
    <use transform="matrix(.074074 0 0 .074074 42.889 0)" xlink:href="#D"/>
    <use transform="matrix(.074074 0 0 .074074 56.222 0)" xlink:href="#A"/>
   </g>
   <path id="K" d="M127-220V0H93v-220H8v-28h204v28h-85" fill="#fff"/>
   <path id="L" d="M100-194c63 0 86 42 84 106H49c0 40 14 67 53 68 26 1 43-12 49-29l28 8c-11 28-37 45-77 45C44 4 14-33 15-96c1-61 26-98 85-98zm52 81c6-60-76-77-97-28-3 7-6 17-6 28h103" fill="#fff"/>
   <path id="M" d="M179-190L93 31C79 59 56 82 12 73V49c39 6 53-20 64-50L1-190h34L92-34l54-156h33" fill="#fff"/>
   <g id="g">
    <use transform="scale(.062346)" xlink:href="#K"/>
    <use transform="matrix(.062346 0 0 .062346 13.654 0)" xlink:href="#s"/>
    <use transform="matrix(.062346 0 0 .062346 26.123 0)" xlink:href="#L"/>
    <use transform="matrix(.062346 0 0 .062346 38.592 0)" xlink:href="#p"/>
    <use transform="matrix(.062346 0 0 .062346 51.061 0)" xlink:href="#o"/>
    <use transform="matrix(.062346 0 0 .062346 58.48 0)" xlink:href="#M"/>
   </g>
   <path id="N" d="M205 0l-28-72H64L36 0H1l101-248h38L239 0h-34zm-38-99l-47-123c-12 45-31 82-46 123h93" fill="#fff"/>
   <path id="O" d="M115-194c55 1 70 41 70 98S169 2 115 4C84 4 66-9 55-30l1 105H24l-1-265h31l2 30c10-21 28-34 59-34zm-8 174c40 0 45-34 45-75s-6-73-45-74c-42 0-51 32-51 76 0 43 10 73 51 73" fill="#fff"/>
   <path id="P" d="M24 0v-261h32V0H24" fill="#fff"/>
   <path id="Q" d="m96-169c-40 0-48 33-48 73s9 75 48 75c24 0 41-14 43-38l32 2c-6 37-31 61-74 61-59 0-76-41-82-99-10-93 101-131 147-64 4 7 5 14 7 22l-32 3c-4-21-16-35-41-35" fill="#fff"/>
   <path id="R" d="M135-143c-3-34-86-38-87 0 15 53 115 12 119 90S17 21 10-45l28-5c4 36 97 45 98 0-10-56-113-15-118-90-4-57 82-63 122-42 12 7 21 19 24 35" fill="#fff"/>
   <g id="h">
    <use transform="scale(.062346)" xlink:href="#N"/>
    <use transform="matrix(.062346 0 0 .062346 14.963 0)" xlink:href="#O"/>
    <use transform="matrix(.062346 0 0 .062346 27.432 0)" xlink:href="#O"/>
    <use transform="matrix(.062346 0 0 .062346 39.901 0)" xlink:href="#P"/>
    <use transform="matrix(.062346 0 0 .062346 44.827 0)" xlink:href="#w"/>
    <use transform="matrix(.062346 0 0 .062346 49.752 0)" xlink:href="#Q"/>
    <use transform="matrix(.062346 0 0 .062346 60.974 0)" xlink:href="#r"/>
    <use transform="matrix(.062346 0 0 .062346 73.443 0)" xlink:href="#n"/>
    <use transform="matrix(.062346 0 0 .062346 79.678 0)" xlink:href="#w"/>
    <use transform="matrix(.062346 0 0 .062346 84.603 0)" xlink:href="#p"/>
    <use transform="matrix(.062346 0 0 .062346 97.072 0)" xlink:href="#m"/>
    <use transform="matrix(.062346 0 0 .062346 109.54 0)" xlink:href="#R"/>
   </g>
   <path id="S" d="m185-189c-5-48-123-54-124 2 14 75 158 14 163 119 3 78-121 87-175 55-17-10-28-26-33-46l33-7c5 56 141 63 141-1 0-78-155-14-162-118-5-82 145-84 179-34 5 7 8 16 11 25" fill="#fff"/>
   <g id="i">
    <use transform="scale(.062346)" xlink:href="#S"/>
    <use transform="matrix(.062346 0 0 .062346 14.963 0)" xlink:href="#M"/>
    <use transform="matrix(.062346 0 0 .062346 26.185 0)" xlink:href="#R"/>
    <use transform="matrix(.062346 0 0 .062346 37.407 0)" xlink:href="#n"/>
    <use transform="matrix(.062346 0 0 .062346 43.642 0)" xlink:href="#L"/>
    <use transform="matrix(.062346 0 0 .062346 56.111 0)" xlink:href="#v"/>
    <use transform="matrix(.062346 0 0 .062346 74.752 0)" xlink:href="#R"/>
   </g>
   <path id="T" d="M85-194c31 0 48 13 60 33l-1-100h32l1 261h-30c-2-10 0-23-3-31C134-8 116 4 85 4 32 4 16-35 15-94c0-66 23-100 70-100zm9 24c-40 0-46 34-46 75 0 40 6 74 45 74 42 0 51-32 51-76 0-42-9-74-50-73" fill="#fff"/>
   <path id="U" d="M108 0H70L1-190h34L89-25l56-165h34" fill="#fff"/>
   <g id="j">
    <use transform="scale(.062346)" xlink:href="#N"/>
    <use transform="matrix(.062346 0 0 .062346 14.963 0)" xlink:href="#T"/>
    <use transform="matrix(.062346 0 0 .062346 27.432 0)" xlink:href="#U"/>
    <use transform="matrix(.062346 0 0 .062346 38.654 0)" xlink:href="#r"/>
    <use transform="matrix(.062346 0 0 .062346 51.123 0)" xlink:href="#m"/>
    <use transform="matrix(.062346 0 0 .062346 63.593 0)" xlink:href="#Q"/>
    <use transform="matrix(.062346 0 0 .062346 74.815 0)" xlink:href="#L"/>
    <use transform="matrix(.062346 0 0 .062346 87.284 0)" xlink:href="#T"/>
   </g>
   <path id="V" d="M212-179c-10-28-35-45-73-45-59 0-87 40-87 99 0 60 29 101 89 101 43 0 62-24 78-52l27 14C228-24 195 4 139 4 59 4 22-46 18-125c-6-104 99-153 187-111 19 9 31 26 39 46" fill="#fff"/>
   <path id="W" d="M84 4C-5 8 30-112 23-190h32v120c0 31 7 50 39 49 72-2 45-101 50-169h31l1 190h-30c-1-10 1-25-2-33-11 22-28 36-60 37" fill="#fff"/>
   <g id="k">
    <use transform="scale(.062346)" xlink:href="#V"/>
    <use transform="matrix(.062346 0 0 .062346 16.148 0)" xlink:href="#W"/>
    <use transform="matrix(.062346 0 0 .062346 28.617 0)" xlink:href="#o"/>
    <use transform="matrix(.062346 0 0 .062346 36.036 0)" xlink:href="#o"/>
    <use transform="matrix(.062346 0 0 .062346 43.455 0)" xlink:href="#w"/>
    <use transform="matrix(.062346 0 0 .062346 48.38 0)" xlink:href="#Q"/>
    <use transform="matrix(.062346 0 0 .062346 59.602 0)" xlink:href="#W"/>
    <use transform="matrix(.062346 0 0 .062346 72.072 0)" xlink:href="#P"/>
    <use transform="matrix(.062346 0 0 .062346 76.997 0)" xlink:href="#W"/>
    <use transform="matrix(.062346 0 0 .062346 89.466 0)" xlink:href="#v"/>
   </g>
   </defs>
  </g>
 </svg>